<?xml version="1.0" encoding="utf-8"?>
<!-- Generator: Adobe Illustrator 22.0.1, SVG Export Plug-In . SVG Version: 6.00 Build 0)  -->
<svg version="1.1" id="Layer_1" xmlns="http://www.w3.org/2000/svg" xmlns:xlink="http://www.w3.org/1999/xlink" x="0px" y="0px"
	 viewBox="0 0 512 512" enable-background="new 0 0 512 512" xml:space="preserve">
<g>
	<defs>
		<rect id="SVGID_1_" x="132.7" y="97.4" width="246.7" height="246.7"/>
	</defs>
	<clipPath id="SVGID_2_">
		<use xlink:href="#SVGID_1_"  overflow="visible"/>
	</clipPath>
	<g clip-path="url(#SVGID_2_)">
		<path fill="#A6A8AB" d="M256,221.3c31.9,0,63.7,0,95.6,0c4.5,0,9,0,13.5,0c0.6,0,0.6-1,0-1c-31.9,0-63.7,0-95.6,0
			c-4.5,0-9,0-13.5,0C255.4,220.3,255.4,221.3,256,221.3L256,221.3z"/>
		<path fill="#A6A8AB" d="M256.5,220.8c0-34.3,0-68.6,0-102.9c0-4.9,0-9.7,0-14.6c0-0.6-1-0.6-1,0c0,34.3,0,68.6,0,102.9
			c0,4.9,0,9.7,0,14.6C255.5,221.4,256.5,221.4,256.5,220.8L256.5,220.8z"/>
		<path fill="#A6A8AB" d="M256,220.3c-31.9,0-63.7,0-95.6,0c-4.5,0-9,0-13.5,0c-0.6,0-0.6,1,0,1c31.9,0,63.7,0,95.6,0
			c4.5,0,9,0,13.5,0C256.6,221.3,256.6,220.3,256,220.3L256,220.3z"/>
		<path fill="#3E3E3F" d="M255.5,220.8c0,25.8,0,51.6,0,77.4c0,3.7,0,7.4,0,11.1c0,0.6,1,0.6,1,0c0-25.8,0-51.6,0-77.4
			c0-3.7,0-7.4,0-11.1C256.5,220.1,255.5,220.1,255.5,220.8L255.5,220.8z"/>
		<path fill="#A6A8AB" d="M256.4,221.1c18.9-18.9,37.9-37.9,56.8-56.8c2.8-2.8,5.5-5.5,8.3-8.3c0.5-0.5-0.3-1.2-0.7-0.7
			c-18.9,18.9-37.9,37.9-56.8,56.8c-2.8,2.8-5.5,5.5-8.3,8.3C255.2,220.9,255.9,221.6,256.4,221.1L256.4,221.1z"/>
		<path fill="#A6A8AB" d="M256.4,220.4c-18.5-18.5-37.1-37.1-55.6-55.6c-2.7-2.7-5.4-5.4-8-8c-0.5-0.5-1.2,0.3-0.7,0.7
			c18.5,18.5,37.1,37.1,55.6,55.6c2.7,2.7,5.4,5.4,8,8C256.1,221.6,256.8,220.9,256.4,220.4L256.4,220.4z"/>
		<path fill="#3E3E3F" d="M255.6,220.4c-20.4,20.4-40.8,40.8-61.2,61.2c-2.9,2.9-5.8,5.8-8.8,8.8c-0.5,0.5,0.3,1.2,0.7,0.7
			c20.4-20.4,40.8-40.8,61.2-61.2c2.9-2.9,5.8-5.8,8.8-8.8C256.8,220.7,256.1,220,255.6,220.4L255.6,220.4z"/>
		<path fill="#3E3E3F" d="M255.6,221.1c20.5,20.5,41,41,61.6,61.6c2.9,2.9,5.8,5.8,8.7,8.7c0.5,0.5,1.2-0.3,0.7-0.7
			c-20.5-20.5-41-41-61.6-61.6c-2.9-2.9-5.8-5.8-8.7-8.7C255.9,220,255.2,220.7,255.6,221.1L255.6,221.1z"/>
		<path fill="#00BAF1" d="M256.1,221.3c28.8-7.7,57.6-15.4,86.4-23.2c4.1-1.1,8.2-2.2,12.3-3.3c0.6-0.2,0.4-1.1-0.3-1
			c-28.8,7.7-57.6,15.4-86.4,23.2c-4.1,1.1-8.2,2.2-12.3,3.3C255.2,220.5,255.5,221.4,256.1,221.3L256.1,221.3z"/>
		<path fill="#FAAF3F" d="M256.5,220.6c-8.2-30.8-16.5-61.6-24.7-92.4c-1.2-4.3-2.3-8.7-3.5-13c-0.2-0.6-1.1-0.4-1,0.3
			c8.2,30.8,16.5,61.6,24.7,92.4c1.2,4.3,2.3,8.7,3.5,13C255.7,221.5,256.6,221.3,256.5,220.6L256.5,220.6z"/>
		<path fill="#A6A8AB" d="M255.9,220.3c-27.7,7.4-55.4,14.9-83.2,22.3c-4,1.1-8.1,2.2-12.1,3.2c-0.6,0.2-0.4,1.1,0.3,1
			c27.7-7.4,55.4-14.9,83.2-22.3c4-1.1,8.1-2.2,12.1-3.2C256.8,221.1,256.5,220.1,255.9,220.3L255.9,220.3z"/>
		<path fill="#A6A8AB" d="M255.5,220.9c6.5,24.3,13,48.7,19.6,73c0.2,0.6,1.1,0.4,1-0.3c-6.5-24.3-13-48.7-19.6-73
			C256.3,220,255.4,220.3,255.5,220.9L255.5,220.9z"/>
		<path fill="#A6A8AB" d="M256.4,221c16.7-28.9,33.4-57.8,50-86.7c2.4-4.1,4.8-8.2,7.1-12.4c0.3-0.6-0.5-1.1-0.9-0.5
			c-16.7,28.9-33.4,57.8-50,86.7c-2.4,4.1-4.8,8.2-7.1,12.4C255.2,221.1,256.1,221.6,256.4,221L256.4,221z"/>
		<path fill="#00BAF1" d="M256.3,220.3c-27.6-15.9-55.2-31.9-82.8-47.8c-3.9-2.2-7.8-4.5-11.7-6.7c-0.6-0.3-1.1,0.5-0.5,0.9
			c27.6,15.9,55.2,31.9,82.8,47.8c3.9,2.2,7.8,4.5,11.7,6.7C256.3,221.5,256.8,220.7,256.3,220.3L256.3,220.3z"/>
		<path fill="#A6A8AB" d="M255.6,220.5c-12.6,21.9-25.3,43.8-37.9,65.7c-1.8,3.1-3.6,6.3-5.4,9.4c-0.3,0.6,0.5,1.1,0.9,0.5
			c12.6-21.9,25.3-43.8,37.9-65.7c1.8-3.1,3.6-6.3,5.4-9.4C256.8,220.5,255.9,220,255.6,220.5L255.6,220.5z"/>
		<path fill="#A6A8AB" d="M255.7,221.2c24.5,14.2,49.1,28.3,73.6,42.5c0.6,0.3,1.1-0.5,0.5-0.9c-24.5-14.2-49.1-28.3-73.6-42.5
			C255.7,220,255.2,220.9,255.7,221.2L255.7,221.2z"/>
		<path fill="#A6A8AB" d="M256.5,220.9c7.1-26.4,14.1-52.8,21.2-79.2c1-3.7,2-7.5,3-11.2c0.2-0.6-0.8-0.9-1-0.3
			c-7.1,26.4-14.1,52.8-21.2,79.2c-1,3.7-2,7.5-3,11.2C255.4,221.3,256.3,221.5,256.5,220.9L256.5,220.9z"/>
		<path fill="#FAAF3F" d="M256.1,220.3c-25.4-6.8-50.7-13.6-76.1-20.4c-0.6-0.2-0.9,0.8-0.3,1c25.4,6.8,50.7,13.6,76.1,20.4
			C256.5,221.4,256.8,220.5,256.1,220.3L256.1,220.3z"/>
		<path fill="#A6A8AB" d="M255.5,220.6c-6.5,24.3-13,48.7-19.6,73c-0.2,0.6,0.8,0.9,1,0.3c6.5-24.3,13-48.7,19.6-73
			C256.6,220.3,255.7,220,255.5,220.6L255.5,220.6z"/>
		<path fill="#00BAF1" d="M255.9,221.3c27.3,7.3,54.6,14.6,81.9,21.9c4,1.1,7.9,2.1,11.9,3.2c0.6,0.2,0.9-0.8,0.3-1
			c-27.3-7.3-54.6-14.6-81.9-21.9c-4-1.1-7.9-2.1-11.9-3.2C255.5,220.1,255.2,221.1,255.9,221.3L255.9,221.3z"/>
		<path fill="#3E3E3F" d="M256.4,220.5c-15.9-27.6-31.9-55.2-47.8-82.8c-2.2-3.9-4.5-7.8-6.7-11.7c-0.3-0.6-1.2-0.1-0.9,0.5
			c15.9,27.6,31.9,55.2,47.8,82.8c2.2,3.9,4.5,7.8,6.7,11.7C255.9,221.6,256.8,221.1,256.4,220.5L256.4,220.5z"/>
		<path fill="#00BAF1" d="M255.7,220.3c-25.7,14.8-51.3,29.6-77,44.5c-3.7,2.1-7.4,4.3-11.1,6.4c-0.6,0.3-0.1,1.2,0.5,0.9
			c25.7-14.8,51.3-29.6,77-44.5c3.7-2.1,7.4-4.3,11.1-6.4C256.8,220.9,256.3,220,255.7,220.3L255.7,220.3z"/>
		<path fill="#00BAF1" d="M255.6,221c13.5,23.5,27.1,46.9,40.6,70.4c0.3,0.6,1.2,0.1,0.9-0.5c-13.5-23.5-27.1-46.9-40.6-70.4
			C256.1,220,255.2,220.5,255.6,221L255.6,221z"/>
		<path fill="#3E3E3F" d="M256.3,221.2c27.6-15.9,55.2-31.9,82.8-47.8c3.9-2.2,7.8-4.5,11.7-6.7c0.6-0.3,0.1-1.2-0.5-0.9
			c-27.6,15.9-55.2,31.9-82.8,47.8c-3.9,2.2-7.8,4.5-11.7,6.7C255.2,220.7,255.7,221.5,256.3,221.2L256.3,221.2z"/>
		<path fill="#3E3E3F" d="M256.1,221.3c23.2-9.6,46.3-19.2,69.5-28.8c3.3-1.4,6.6-2.7,9.9-4.1c0.6-0.2,0.3-1.2-0.3-1
			c-23.2,9.6-46.3,19.2-69.5,28.8c-3.3,1.4-6.6,2.7-9.9,4.1C255.3,220.5,255.5,221.5,256.1,221.3L256.1,221.3z"/>
		<path fill="#FAAF3F" d="M255.5,220.9c10.4,25,20.7,50.1,31.1,75.1c0.2,0.6,1.2,0.3,1-0.3c-10.4-25-20.7-50.1-31.1-75.1
			C256.2,220.1,255.3,220.3,255.5,220.9L255.5,220.9z"/>
		<path fill="#3E3E3F" d="M255.9,220.3c-25.1,10.4-50.1,20.8-75.2,31.1c-3.6,1.5-7.2,3-10.8,4.5c-0.6,0.2-0.3,1.2,0.3,1
			c25.1-10.4,50.1-20.8,75.2-31.1c3.6-1.5,7.2-3,10.8-4.5C256.7,221,256.5,220,255.9,220.3L255.9,220.3z"/>
		<path fill="#3E3E3F" d="M256.5,220.6c-9.6-23.2-19.2-46.3-28.8-69.5c-1.4-3.3-2.7-6.6-4.1-9.9c-0.2-0.6-1.2-0.3-1,0.3
			c9.6,23.2,19.2,46.3,28.8,69.5c1.4,3.3,2.7,6.6,4.1,9.9C255.8,221.5,256.7,221.2,256.5,220.6L256.5,220.6z"/>
		<path fill="#FAAF3F" d="M255.9,221.3c24.2,10,48.5,20.1,72.7,30.1c0.6,0.2,0.9-0.7,0.3-1c-24.2-10-48.5-20.1-72.7-30.1
			C255.5,220.1,255.3,221,255.9,221.3L255.9,221.3z"/>
		<path fill="#FAAF3F" d="M255.5,220.6c-9.8,23.7-19.7,47.5-29.5,71.2c-0.2,0.6,0.7,0.9,1,0.3c9.8-23.7,19.7-47.5,29.5-71.2
			C256.7,220.3,255.8,220.1,255.5,220.6L255.5,220.6z"/>
		<path fill="#3E3E3F" d="M256.1,220.3c-22.6-9.4-45.2-18.7-67.8-28.1c-0.6-0.2-0.9,0.7-0.3,1c22.6,9.4,45.2,18.7,67.8,28.1
			C256.5,221.5,256.7,220.5,256.1,220.3L256.1,220.3z"/>
		<path fill="#FAAF3F" d="M256.5,220.9c10.5-25.5,21.1-50.9,31.6-76.4c0.2-0.6-0.7-0.9-1-0.3c-10.5,25.5-21.1,50.9-31.6,76.4
			C255.3,221.2,256.2,221.5,256.5,220.9L256.5,220.9z"/>
		<path fill="#FAAF3F" d="M256,221.3c24.9-3.3,49.7-6.5,74.6-9.8c3.5-0.5,7.1-0.9,10.6-1.4c0.6-0.1,0.6-1.1,0-1
			c-24.9,3.3-49.7,6.5-74.6,9.8c-3.5,0.5-7.1,0.9-10.6,1.4C255.4,220.4,255.4,221.4,256,221.3L256,221.3z"/>
		<path fill="#00BAF1" d="M255.5,220.8c3,23,6.1,46,9.1,68.9c0.1,0.6,1.1,0.6,1,0c-3-23-6.1-46-9.1-68.9
			C256.4,220.1,255.4,220.1,255.5,220.8L255.5,220.8z"/>
		<path fill="#FAAF3F" d="M256,220.3c-29.3,3.9-58.5,7.7-87.8,11.6c-4.2,0.5-8.3,1.1-12.5,1.6c-0.6,0.1-0.6,1.1,0,1
			c29.3-3.9,58.5-7.7,87.8-11.6c4.2-0.5,8.3-1.1,12.5-1.6C256.6,221.2,256.6,220.2,256,220.3L256,220.3z"/>
		<path fill="#3E3E3F" d="M256.5,220.8c-3.6-27.5-7.2-55-10.9-82.5c-0.5-3.9-1-7.8-1.5-11.7c-0.1-0.6-1.1-0.6-1,0
			c3.6,27.5,7.2,55,10.9,82.5c0.5,3.9,1,7.8,1.5,11.7C255.6,221.4,256.6,221.4,256.5,220.8L256.5,220.8z"/>
		<path fill="#3E3E3F" d="M255.7,221.2c19.8,15.2,39.5,30.3,59.3,45.5c0.5,0.4,1-0.5,0.5-0.9c-19.8-15.2-39.5-30.3-59.3-45.5
			C255.7,220,255.2,220.8,255.7,221.2L255.7,221.2z"/>
		<path fill="#3E3E3F" d="M255.6,220.5c-15.7,20.5-31.5,41-47.2,61.5c-0.4,0.5,0.5,1,0.9,0.5c15.7-20.5,31.5-41,47.2-61.5
			C256.8,220.5,256,220,255.6,220.5L255.6,220.5z"/>
		<path fill="#3E3E3F" d="M256.3,220.3c-23.2-17.8-46.4-35.6-69.6-53.4c-3.3-2.6-6.7-5.1-10-7.7c-0.5-0.4-1,0.5-0.5,0.9
			c23.2,17.8,46.4,35.6,69.6,53.4c3.3,2.6,6.7,5.1,10,7.7C256.3,221.6,256.8,220.7,256.3,220.3L256.3,220.3z"/>
		<path fill="#00BAF1" d="M256.4,221c15.3-19.9,30.5-39.8,45.8-59.7c2.2-2.8,4.4-5.7,6.5-8.5c0.4-0.5-0.5-1-0.9-0.5
			c-15.3,19.9-30.5,39.8-45.8,59.7c-2.2,2.8-4.4,5.7-6.5,8.5C255.2,221,256,221.5,256.4,221L256.4,221z"/>
		<path fill="#3E3E3F" d="M255.6,221c15.3,19.9,30.5,39.8,45.8,59.7c2.2,2.8,4.4,5.7,6.5,8.5c0.4,0.5,1.3,0,0.9-0.5
			c-15.3-19.9-30.5-39.8-45.8-59.7c-2.2-2.8-4.4-5.7-6.5-8.5C256,220,255.2,220.5,255.6,221L255.6,221z"/>
		<path fill="#3E3E3F" d="M255.7,220.3c-19.9,15.3-39.8,30.5-59.7,45.8c-2.8,2.2-5.7,4.4-8.5,6.5c-0.5,0.4,0,1.3,0.5,0.9
			c19.9-15.3,39.8-30.5,59.7-45.8c2.8-2.2,5.7-4.4,8.5-6.5C256.8,220.8,256.3,220,255.7,220.3L255.7,220.3z"/>
		<path fill="#3E3E3F" d="M256.4,220.5c-16-20.9-32-41.7-48-62.6c-0.4-0.5-1.3,0-0.9,0.5c16,20.9,32,41.7,48,62.6
			C256,221.5,256.8,221,256.4,220.5L256.4,220.5z"/>
		<path fill="#FAAF3F" d="M256.3,221.2c21.5-16.5,43-33,64.4-49.4c0.5-0.4,0-1.3-0.5-0.9c-21.5,16.5-43,33-64.4,49.4
			C255.2,220.7,255.7,221.6,256.3,221.2L256.3,221.2z"/>
		<path fill="#3E3E3F" d="M255.5,220.8c-3.7,28.1-7.4,56.2-11.1,84.4c-0.1,0.6,0.9,0.6,1,0c3.7-28.1,7.4-56.2,11.1-84.4
			C256.6,220.1,255.6,220.1,255.5,220.8L255.5,220.8z"/>
		<path fill="#3E3E3F" d="M256,220.3c-27-3.6-54-7.1-80.9-10.7c-3.9-0.5-7.7-1-11.6-1.5c-0.6-0.1-0.6,0.9,0,1
			c27,3.6,54,7.1,80.9,10.7c3.9,0.5,7.7,1,11.6,1.5C256.6,221.4,256.6,220.4,256,220.3L256,220.3z"/>
		<path fill="#00BAF1" d="M256.5,220.8c3.7-28.3,7.5-56.6,11.2-85c0.5-4,1.1-8.1,1.6-12.1c0.1-0.6-0.9-0.6-1,0
			c-3.7,28.3-7.5,56.6-11.2,85c-0.5,4-1.1,8.1-1.6,12.1C255.4,221.4,256.4,221.4,256.5,220.8L256.5,220.8z"/>
		<path fill="#3E3E3F" d="M256,221.3c26.5,3.5,53.1,7,79.6,10.5c0.6,0.1,0.6-0.9,0-1c-26.5-3.5-53.1-7-79.6-10.5
			C255.4,220.2,255.4,221.2,256,221.3L256,221.3z"/>
	</g>
	<g clip-path="url(#SVGID_2_)">
		<circle fill-rule="evenodd" clip-rule="evenodd" fill="#3E3E3F" cx="359.3" cy="220.8" r="2"/>
		<circle fill="#3E3E3F" cx="355.1" cy="207.7" r="1.4"/>
		<circle fill="#FAAF3F" cx="328.6" cy="201.3" r="3.3"/>
		<circle fill="#3E3E3F" cx="347.5" cy="182.9" r="3.2"/>
		<circle fill="#00BAF1" cx="318" cy="173.2" r="2.3"/>
		<circle fill="#3E3E3F" cx="307.2" cy="169.6" r="2.1"/>
		<circle fill="#3E3E3F" cx="293.5" cy="155.7" r="2.3"/>
		<circle fill="#3E3E3F" cx="318" cy="140" r="1.7"/>
		<circle fill="#00BAF1" cx="308.4" cy="130.1" r="3.7"/>
		<circle fill="#3E3E3F" cx="278.2" cy="138" r="1.7"/>
		<circle fill="#3E3E3F" cx="269.5" cy="118.5" r="2.5"/>
		<circle fill="#FAAF3F" cx="256" cy="129.4" r="4.1"/>
		<circle fill="#00BAF1" cx="230.1" cy="124" r="2.7"/>
		<circle fill="#00BAF1" cx="213.1" cy="146.5" r="3.3"/>
		<circle fill="#FAAF3F" cx="190.4" cy="135.3" r="1.5"/>
		<circle fill="#3E3E3F" cx="198.7" cy="163.5" r="2.1"/>
		<circle fill="#3E3E3F" cx="175.1" cy="174.1" r="2.4"/>
		<circle fill="#FAAF3F" cx="184.6" cy="201.6" r="1.8"/>
		<circle fill="#3E3E3F" cx="156.1" cy="207.6" r="2.3"/>
		<circle fill="#00BAF1" cx="162.5" cy="220.8" r="3.3"/>
		<circle fill="#FAAF3F" cx="139.5" cy="236.1" r="1.9"/>
		<circle fill="#3E3E3F" cx="182.2" cy="240.6" r="2.7"/>
		<circle fill="#3E3E3F" cx="155.5" cy="262.4" r="3.3"/>
		<circle fill="#FAAF3F" cx="201.2" cy="252.4" r="2.3"/>
		<circle fill="#00BAF1" cx="201.2" cy="275.6" r="2.2"/>
		<circle fill="#3E3E3F" cx="216.5" cy="289.2" r="2"/>
		<circle fill="#3E3E3F" cx="256" cy="297.4" r="3.1"/>
		<circle fill="#3E3E3F" cx="247.1" cy="288.6" r="1.6"/>
		<circle fill="#FAAF3F" cx="285.8" cy="292.7" r="3.4"/>
		<circle fill="#3E3E3F" cx="311.2" cy="276.1" r="2.3"/>
		<circle fill="#3E3E3F" cx="333.6" cy="280.2" r="1.6"/>
		<circle fill="#3E3E3F" cx="308.1" cy="250.8" r="2.8"/>
		<circle fill="#00BAF1" cx="342.4" cy="256.6" r="2.4"/>
		<circle fill="#00BAF1" cx="328.8" cy="240.3" r="4"/>
	</g>
</g>
<g>
	<path fill="#3E3E3F" d="M243.7,284.4c-1.9,0-4-0.2-6.4-0.7c-3-0.6-5.9-1.8-9.5-3.8c-2.2-1.2-4.5-2.5-6.3-4.3
		c-1.9-1.9-2.5-4.2-3.5-6.6c-3.5-7.7-8-12.4-9.8-21.2c-0.5-2.5-3.1-3.6-5.1-9.8c-1.5-4.6-2.9-9.4-3.2-11.1c-1.2-6.4-0.2-11.9,0-16
		c0.2-4.6,0.1-7.5,1.6-11.9c2.1-6.1,5.5-9.9,10.4-14.8c2.6-2.6,4.8-5.1,6.2-8c1.1-2.1,2.5-4.3,4.5-5.8c2-1.4,4.1-2.6,6-4.1
		c2-1.6,4.1-2.6,6.4-3.8c1.6-0.9,2.9-2.2,4.5-3.2c2.6-1.6,5.8-2.4,8.9-2.1c1.5,0.2,3,0.6,4.3,1.5c1.1,0.7,2.3,3,3.8,2.3
		c0.8-0.4,1.2-1.3,1.9-1.9c0.8-0.6,1.8-1,2.7-1.3c2.1-0.6,4.3-0.6,6.4-0.3c4.3,0.6,7.8,3.1,10.6,6.4c1.6,1.9,4,2,6.2,2.8
		c2.5,0.9,4.7,2.6,6.7,4.4c1.9,1.9,3.5,4,4.9,7.1c1.7,3.5,5.6,5.2,8.5,7.7c3.1,2.8,5.7,6.4,7,10.4c0.9,2.7,0.9,5.6,1.1,8.5
		c0.1,2.4,1.2,5.5,0.4,7.8c-1.3,3.9-0.7,8-0.7,12.1c0,2.1-0.2,4.2-1,6.1c-0.3,0.9-0.9,1.6-1.2,2.5c-0.4,1-0.4,2.1-0.4,3.2
		c-0.2,4-2,7.1-5.2,9.3c-1.1,0.8-1.1,1.8-1,2.9c0.2,1.1-0.1,2.5-0.3,3.6c-0.6,2.5-2,4.7-3.7,6.5c-1.6,1.6-2,4-2.4,6.1
		c-0.5,2.3-1,4.6-2.3,6.5c-2.7,4-7.9,5.5-12.2,7.3c-5.3,2.2-8.7,4.3-13.6,4.6c-2,0.1-8.5-1.3-11.2-3.1c-1.6-1-2.6-0.3-4,0.7
		C250,283.1,247.5,284.4,243.7,284.4z"/>
	<path fill="#FAAF3F" d="M264.5,279c-2.4-0.5-4-1.3-4.9-2.6c-0.9-1.3-1.2-3.1-0.9-5.6c0.1-0.9,1.1-1.5,2.5-1.5c1,0,2,0.3,2.7,0.8
		c0.3,0.3,0.7,0.5,1,0.8c0.7,0.5,1.3,1,2,1.5c0.3,0.2,0.6,0.3,0.8,0.4c0.1,0,0.1-0.1,0.2-0.1c0.2-1.7,1.2-2.6,2.1-3.3
		c0.4-0.4,0.9-0.7,1.2-1.2c0.4-0.6,0.8-1.3,0.9-1.9c0,0,0,0,0,0c0-0.1,0-0.2-0.1-0.3c0,0-0.1-0.1-0.1-0.1c-0.1,0-0.2,0-0.2,0
		c-0.3,0-0.7,0.2-1.2,0.6c-1.6,1.4-3.1,2.1-4.6,2.1c-1.4,0-2.7-0.6-3.8-1.8c-0.9-1-1.7-2.4-2.2-4c-0.1-0.3-0.2-0.6-0.3-0.9
		c-0.6-1.9-1.3-3.9-1.1-6.1c0.1-1.4,1.1-1.6,1.5-1.6c0.3,0,0.5,0,0.7,0.1c0.1,0,0.2,0,0.3,0c0.1,0,0.1,0,0.2,0
		c0.4,0.1,0.7,0.1,1.1,0.1c0.7,0,0.8-0.2,0.9-0.5c0.2-0.6-0.3-1.2-1.4-1.9c-2.8-1.5-3.8-4.3-4.5-6.5c-0.8-2.7-0.9-5.2-0.3-7.6
		c0.3-1.1,0.8-3,3.1-3.8c0.7-0.2,1.4-0.3,2.1-0.3c2.6,0,5.1,1.3,6.1,3.3c0.6,1.2,0.1,3.2-0.1,4c-0.5,1.6-1.2,2.9-2,3.5
		c-0.6,0.5-0.9,1.4-0.7,2.5c0.1,0.6,0.3,1.4,1.2,1c0.3-0.1,0.5-0.4,0.7-0.7c0.7-1.1,1.4-2.2,2-3.3c1.2-2.4,3.4-3.3,5.5-4.1l0.1,0
		c2.3-0.9,4.4-3.2,5.3-5.9c0.7-2.1,0.7-4.2-0.2-5.7c-1.6-2.7-5.8-4.2-8.7-3.6c-0.2,0-0.3,0.1-0.5,0.2c-0.4,0.2-0.6,0.8-0.6,1.2
		c0,0.8,0.4,1.4,1.2,1.6c1,0.3,2,0.5,2.9,0.6c1.2,0.1,2.8,0.2,3.6,1.8c0.9,1.7,0.1,3.1-0.5,4.2c-0.1,0.2-0.2,0.3-0.3,0.4
		c-0.8,1.5-2.3,2.3-4.1,2.3c-0.1,0-0.3,0-0.4,0c-1.7-0.1-2.2-1.4-2.7-2.3c-0.2-0.3-0.3-0.6-0.5-0.9c-1.7-2.4-3.5-3.6-5.8-3.7
		c-0.2,0-0.4,0-0.6,0c-1.5,0-3.3-0.1-4.2-2.2c-0.4-0.9-0.7-1.8-1-2.7c-0.4-1.1-0.8-2.1-1.2-3.2c-1.7-3.7-0.7-7.1,0.3-10.4
		c0.1-0.4,0.3-0.9,0.4-1.3l0.1-0.2c0.3-1.2,0.7-2.5,1.5-3.6c0.9-1.2,2-1.5,2.7-1.5c0.9,0,1.9,0.4,2.8,1.2c0.8,0.7,1.3,1.4,1.3,2.2
		c0.1,1.2-0.8,2.2-1.5,3.1c0,0,0,0,0,0c-0.8,0.9-1.3,1.6-1.1,2.9c0,0.1,0,0.1,0.1,0.2c0,0,0.1,0.1,0.2,0.1c0.8,0.2,1.5-0.2,2-0.7
		c0.3-0.3,0.5-0.6,0.8-1c0.7-1,1.6-2.1,3.1-2.7c0.5-0.2,0.9-0.3,1.3-0.3c0.9,0,1.6,0.4,2.2,0.8c0.3,0.2,0.5,0.4,0.8,0.5
		c0.3,0.1,0.5,0.2,0.7,0.4c0.2,0.2,0.5,0.3,0.7,0.3c0,0,0.1,0,0.2-0.1c0.4-0.2,0.8-0.6,0.4-1.6c-1-2.2-2.9-3-5-3.9
		c-0.5-0.2-1-0.4-1.6-0.7c-1.5-0.7-2.8-1.6-4.1-2.4c-0.5-0.3-1-0.6-1.5-1c-1.6-1-2.7-2.3-3.4-4c-0.7-1.8-0.7-3.3,0-4.4
		c0.9-1.5,2.7-1.8,4.3-1.8c0.8,0,1.6,0,2.2,0.4c0.7,0.4,1,1.2,1.2,2c0.1,0.9-0.7,1.6-0.2,2.5c0.3,0.7,1.1,0.9,1.8,1c0,0,0,0,0.1,0
		c0.7,0,1-0.6,1.3-1.2c0.4-1,0.7-2,0.5-3c-0.4-2.3-3.2-4.7-5.6-4.7c-0.1,0-0.2,0-0.2,0c-0.3,0-0.6,0-1,0c-0.3,0-0.7,0-1.2,0
		c-0.1,0-0.2,0-0.3,0c-0.6,0-1.7,0-2-1.2c-0.3-1.2,0.4-2.1,0.9-2.7l0.1-0.1c1-1.3,2.4-2.1,3.6-2.9l0,0c0.4-0.3,0.4-0.4,0.3-0.5
		c-0.3-0.7-0.7-0.9-1.3-0.9c-0.3,0-0.6,0-0.9,0.1c-0.1,0-0.2,0-0.3,0.1c-0.9,0.2-1.7,0.4-2.3,1c-0.1,0.1-0.3,0.3-0.7,0.3
		c-0.8,0-0.9-0.8-1.1-1.8c-0.5-2.4-1.1-5.5-1-8.8c0.1-2,0.9-3.8,2.3-5.2c1.4-1.3,3.3-2.1,5.2-2.1c0.8,0,1.6,0.1,2.3,0.4
		c1.5,0.5,3.3,1.1,4.1,3.1c0.2,0.5,0.1,1.2-0.3,1.6c-0.4,0.4-0.8,0.6-1.3,0.6c-0.2,0-0.4,0-0.6-0.1c-1.4-0.5-2.6-0.7-3.7-0.7
		c-1.6,0-3,0.5-4.2,1.5c-0.2,0.2-0.5,0.5-0.3,0.8c0.1,0.1,0.1,0.1,0.3,0.1c0.2,0,0.5-0.1,0.7-0.1c0.1,0,0.1,0,0.2,0
		c1.1-0.3,2.1-0.4,3-0.4c2.6,0,4.7,1,6.6,3.1c0.6,0.6,1.3,1,2,1c0.5,0,0.8-0.2,1.2-0.5c0.1-0.1,0.3-0.3,0.2-0.5
		c-0.1-0.4-0.8-0.8-1.1-0.9c-0.6-0.3-1.2-0.7-1.8-1.1c-0.1,0-0.1-0.1-0.1-0.2c0,0,0.1-0.1,0.1-0.1c0.8-0.4,1.7-0.7,2.6-0.7
		c1.6,0,3.7,0.6,5.8,1.7c2.1,1.1,3.8,2.4,4.5,3.7c0.2,0.3,0.4,0.5,0.6,0.8c0.2,0.2,0.4,0.5,0.5,0.7c0.3,0.5,0.6,0.9,0.9,1.4
		c0.4,0.8,0.2,1.5-0.7,1.7c-0.8,0.2-1.6,0.3-2.4,0.5c-0.4,0.1-0.9,0.1-1,0.6c0,0.2-0.1,0.6,0.9,0.7c1.1,0.1,2.2,0.3,3.4,0.5
		c3.4,0.7,6.5,2.1,9.6,4.1c3.8,2.5,6.6,6.1,8.7,11.2c0.1,0.2,0.1,0.3,0.2,0.5c0.3,0.6,0.6,1.3,0.7,2c0.1,0.9-0.3,1.7-1.2,2.2
		c-0.4,0.2-0.8,0.3-1.3,0.3c-1.4,0-2.3-1.2-3-2.2c-0.1-0.1-0.1-0.2-0.2-0.3c-0.5-0.6-0.9-1.3-1.3-1.9c-0.8-1.2-1.5-2.3-2.5-3.2
		c-0.7-0.6-1.6-0.9-2.5-0.9c-1.2,0-2.5,0.5-3.4,1.3c-1.1,1-2.3,2-3.8,2c-0.7,0-1.4-0.2-2.1-0.7c-1.3-0.9-2.2-2.1-2.4-3.5
		c-0.2-1.2,0.2-2.5,1-3.5c0.5-0.6,1.2-0.9,1.9-0.9c0.5,0,1,0.2,1.5,0.5c0.6,0.5,1.1,0.7,1.6,0.7c0.2,0,0.5-0.1,0.7-0.2
		c0.2-0.2,0.3-0.9,0-1.5c-0.3-0.9-0.9-1.3-2.2-1.3c-0.1,0-0.1,0-0.2,0c-0.1,0-0.1,0-0.2,0c-0.1,0-0.2,0-0.3,0c0,0,0,0,0,0
		c-0.3,0-0.7,0.1-1,0.1c-0.8,0.1-1.7,0.2-2.6,0.3c-0.3,0.1-0.5,0.1-0.7,0.1c-1.3,0-2.2-0.7-2.9-1.4c-0.3-0.2-0.5-0.4-0.8-0.6
		c-0.2-0.1-0.4-0.2-0.5-0.4c-0.9-0.6-4.5-2.3-4.5-2.3c-0.1-0.1-0.1-0.2,0-0.3c0.4-0.3,0.8-0.6,1.2-0.8c0.6-0.4,1.4-0.4,1.3-1.4
		c0-0.1-0.1-0.3-0.1-0.4c-0.5-0.7-1.9-0.5-2.7-0.4c-1.2,0.2-2.1,0.8-2.9,1.8c-0.6,0.8-0.6,1.6-0.5,2.1c0,0,0,0,0,0.1
		c0.2,0.2,0.7,0.5,1.3,0.6c3.4,0.8,6.3,2.8,8.7,6c1,1.3,1.8,4,2,7c0.3,3.1-0.1,5.8-1,7.2c-0.5,0.8-1.2,1.5-1.9,2.1
		c-0.5,0.5-1,1-1.4,1.5c-0.2,0.3-0.3,0.6-0.2,0.7c0.1,0.2,0.4,0.3,0.7,0.3c0,0,0,0,0.1,0c0.1,0,0.2,0,0.2,0c1.6,0,2.4,1,3.1,1.7
		c0.2,0.2,0.3,0.4,0.5,0.5c0.7,0.7,1.4,1.4,2.2,1.4c0.4,0,0.8-0.2,1.3-0.6c0.2-0.2,0.4-0.4,0.4-0.5c0-0.1-0.1-0.3-0.6-0.7
		c-2.6-1.8-3-4.6-1-7.5c1.1-1.7,6-4.5,6.7-4.8c0.8-0.3,1.7-0.6,2.6-0.6c1.3,0,2.3,0.6,3.1,1.7c0.3,0.5,0.7,0.9,1,1.4
		c1.5,2.2,2.7,4,5.7,4.6c3.5,0.7,3.8,4.7,4,7.4c0.2,2.4,0.2,4.8-1.3,6.5c-1.8,2-1.6,4.2-1.3,6.5c0.1,1,0.3,2.1,0.2,3.1l0,0.2
		c-0.2,3.8-0.3,7.8-3.1,11.1c-1.1,1.3-2.6,1.6-3.9,1.8c-1.4,0.3-2.3,1-2.7,2.4c-0.4,1.3-1.3,2.3-2.5,2.5c-0.6,0.1-1.1,0.4-1.7,0.7
		c-0.8,0.4-1.7,0.9-2.8,0.9c-0.1,0-0.3,0-0.4,0c-0.3,0-0.6,0.1-1,0.1c-0.4,0-1.8,0-2.4-1.3c-0.7-1.4,0.5-2.5,1.3-3.2
		c0.1-0.1,0.3-0.2,0.4-0.4c0.9-0.9,1.4-1.9,2-3.1c0.1-0.2,0.2-0.4,0.3-0.6c0.7-1.3,1.4-2.9,1.3-4.6c-0.1-1.3-0.3-1.8-0.7-1.9
		c-0.1,0-0.2,0-0.2,0c-0.9,0-1.3,1.3-1.4,1.6c-0.1,0.2-0.1,0.4-0.2,0.7c-1,3.5-1.9,7.2-5.7,9.4c-0.4,0.2-0.4,0.8-0.5,1.7
		c0,0.3,0,0.6-0.1,0.9c-0.5,2.8-2.6,4.1-4.4,5.3c-0.2,0.1-0.4,0.3-0.6,0.4c-1.7,1.1-3.5,1.3-5.3,1.5c-1,0.1-2,0.2-3,0.5
		c-0.1,0-0.2,0-0.2,0.1c-0.9,0.3-1.2,0.4-1.4,1c-0.3,1.1,0.2,1.4,0.4,1.5c0.2,0.1,0.4,0.2,0.5,0.2c0.3,0,0.7-0.2,1.2-0.6
		c0.6-0.5,1.5-0.8,2.5-0.8c1.7,0,3.8,0.8,5.5,2.1c1.4,1,2.6,1.6,3.9,1.8c0.4,0,1.4,0.3,1.6,1.1c0.2,0.7-0.1,1.3-0.5,1.9
		c-0.7,1-1.2,1.8-2.2,2.5c-0.8,0.6-1.3,1-1.4,1.7c0,0.2,0,0.5,0.1,0.7c0.1,0.1,0.4,0.2,0.8,0.2c0.1,0,0.2,0,0.3,0
		c1.6-0.1,3-1.8,3.8-3.1c0.5-0.8,0.7-1.7,1-2.6c0.4-1.3,1-2.5,1.5-3.8c0.3-0.8,0.3-1.1,0.1-1.4c-0.3-0.3-0.4-0.4-0.6-0.4
		c-0.3,0-0.7,0.2-1.1,0.3c-0.1,0-0.2,0.1-0.3,0.1c-0.6,0.2-1.2,0.4-1.8,0.4c-1.4,0-2.6-0.6-3.6-1.3l-0.5-0.3c-0.1,0-0.1-0.1,0-0.2
		l0.3-0.5c0,0,0.1-0.1,0.1-0.2c0.1-0.2,0.3-0.5,0.6-0.7c1-0.6,1.8-1.5,2.6-2.4c0.5-0.7,1.1-1.3,1.8-1.9c0.5-0.4,1.1-0.7,1.9-0.7
		c0.5,0,1,0.1,1.4,0.2c0.4,0.1,0.8,0.1,1.2,0.1c0,0,0.1,0,0.1,0c2.4-0.1,4.7-0.1,6.7-1.4c1-0.6,2.1-1,3.2-1.3c0.1,0,0.1,0,0.2,0
		c0.1,0,0.1,0.1,0.2,0.2c0.2,0.5,0.3,1,0.2,1.5c-0.2,0.9-0.7,1.7-1.1,2.5c-0.1,0.1-0.1,0.3-0.2,0.4c-0.2,0.4-0.4,0.8-0.6,1.2
		c-0.5,1-1.1,2.1-1.8,3c-0.4,0.6-1,1-1.5,1.4c-0.5,0.4-0.9,0.7-1.2,1.1c-0.3,0.4-0.5,1.1-0.6,1.8c0,0.2-0.1,0.3-0.1,0.5
		c-0.5,2.2-1.1,4.7-2.4,6.8c-1.4,2.2-3.3,3.7-5.9,4.6c-0.7,0.2-1.3-0.2-1.5-0.8c-0.3-0.8-1.7,1.1-2.1,1.7c-0.4,0.6-0.8,1.3-1.6,1.6
		l-0.2,0.1C274.5,277.9,271.1,280.3,264.5,279z M296.3,238.1c0,0,0,0.1,0,0.1c0.1,0.2,0.3,0.4,0.5,0.4c0.1,0,0.2,0,0.4-0.1
		c1.9-0.8,2.3-2.7,2.7-4.5l0-0.1c0.7-3.4,1.2-6.4,0.4-9.4c-0.5-1.8-1.4-3.5-2.5-4.8c-1.2-1.4-2-2.9-2.4-4.6c-0.3-1-0.3-2-0.4-2.9
		c-0.1-1.1-0.2-2.1-0.5-3.1c-0.3-0.9-0.7-1-1.1-1c-0.1,0-0.3,0-0.4,0c-0.6,0.1-0.8,0.3-0.7,1.6c0,0.3,0.1,0.5,0.1,0.8
		c0.3,3,0.7,6-1,8.9c-0.1,0.1-0.1,0.3-0.2,0.4c-1,1.7-2.2,3.8-4.7,3.8c-0.3,0-0.6,0-0.9-0.1c-1.6-0.3-3.6-3.5-4.1-3.8
		c-0.2-0.1-1.4-1.1-1.8-1.1c-0.2,0-0.4,0.1-0.6,0.3c-0.1,0.1-0.5,0.4-0.1,1.8c0.5,1.6,1.4,2.8,3.1,3.9c0.6,0.4,1.1,0.9,1.6,1.3
		c0.8,0.8,1.6,1.5,2.6,1.7c0.4,0.1,0.8,0.1,1.2,0.1c1.6,0,2.6-0.9,3.9-3.8c0.4-0.9,1.3-2.8,2.8-2.8c0.4,0,0.8,0.1,1.2,0.4
		c1.5,1,2.5,2.5,2.9,4.3c0.4,1.4,0.4,3.1,0.1,5.1c-0.3,1.7-0.7,3.4-1.2,5.2C296.7,236.6,296.5,237.4,296.3,238.1z"/>
	<path fill="#00BAF1" d="M243.3,279.7c-4.4,0-8.8-2.8-9.8-3.7c-1.1-1-2.4-1.6-3.8-2.1c-1.3-0.5-2.7-1.1-3.8-2.1
		c-2.2-1.8-2.9-4.3-3.5-6.7c-0.1-0.5-0.3-0.9-0.4-1.4c-0.8-2.6-2.2-4.7-4.3-6.7c-0.2-0.2-0.4-0.4-0.6-0.6c-2.1-1.8-2.9-3.6-2.7-6.4
		c0-0.2,0-0.4,0.1-0.6c0.3-0.5,1.1-0.5,1.6-0.2c1.6,0.7,3,1.8,4.6,2.4c2.1,0.7,4.4,0.3,6.5,0.9c2.1,0.6,4,1.8,5.6,3.3
		c0.4,0.4,0.8,1,0.6,1.5c-0.1,0.2-0.2,0.4-0.4,0.6c-1.2,1.4-3.1,2-4.8,1.8c-2.1-0.2-3.8-1.3-2.4,1.6c1.3,2.6,2.7,5.4,5.1,7.1
		c0.9,0.6,2.1,1.1,3.1,1.3c0.8,0.2,3.3,0,2.2-1.5c-0.3-0.4-0.7-0.6-1.1-0.7c-0.9-0.4-1.9-0.7-2.8-1.3c-0.8-0.6-1.6-1.4-1.7-2.5
		c-0.1-1.7,1.2-1.9,2.3-2.6c0.5-0.3,1-0.6,1.5-0.9c1-0.5,3-1.3,3.2-2.6c0.1-0.5-0.2-1.1-0.5-1.5c-1.1-1.5-2.9-2.3-4.3-3.5
		c-1.6-1.4-2-2.9-2.3-5c0,0,0-0.2,0-0.2c-0.5-4-5.3-5.4-6-9.2c-0.5-2.7,1.7-5.1,4.3-5.3l0.2,0c3-0.3,5.9-0.6,8.7-1.5
		c0.7-0.2,1.4-1,1.9-2.1c0.6-1.3,0.8-2.7,0.5-3.4c-0.9-2.2-2.4-3.3-4.8-3.6c0,0-0.1,0-0.1,0c-0.3,0-0.5,0.1-0.6,0.5
		c-0.2,0.6,0,1.2,0.6,1.8c0.1,0.1,0.3,0.3,0.4,0.4c1.8,1.8,1.4,4.9-1.7,4.6c-1-0.1-1.9-0.5-2.9-0.8c-2.1-0.6-5.8,0.2-7.6,1.6
		c-2.2,1.9-3.3,4.3-2.6,7.3c0.5,2.1,2,5,3.6,6.5c0.5,0.5,1.1,1,1.4,1.8c0.8,2.3-0.4,4.2-3,3.5c-2-0.5-4-1.6-5.4-3.2
		c-0.9-1-1.2-2.6-2.1-3.4c-1.5-1.3-3.6-0.9-5.2-2c-2.2-1.5-3.3-4.3-3.7-6.8c-0.2-1.3-0.3-2.7-0.1-4c0.2-1.3,1.1-2.8,0.4-4.1
		c-0.6-1.2-2-1.7-2.6-3c-0.8-1.6-0.8-3.3-0.7-4.9c0.1-1.7,0.6-3.4,1-5c0.2-0.6,0.4-1.3,0.5-1.9c0.5-2.1,1.8-3.9,3.9-5.4
		c1.1-0.8,2-1.9,2.9-3c0.8-1,1.6-2.1,2.7-2.9c1.2-1,2.6-1.5,4-1.5c2,0,4,1,6.1,2.9c1.7,1.6,3.6,3.9,2.7,7.2c-0.2,0.7-0.6,1.2-1,1.7
		c-0.4,0.5-0.8,1-0.8,1.7c0,0.1,0,0.1,0,0.2c-0.1,0.9-0.1,1.3,0.3,1.4c0.3,0.2,0.6,0.3,0.9,0.3c0.5,0,1-0.3,1.2-0.8
		c1.5-3.1,3-1.2,4.8,0.5c2.6,2.4,7.3,3.6,10.6,2.2c1.8-0.8,3.3-5.7,0.7-4.4c-1.7,0.9-3.9,1.9-5.9,2.3c-2.1,0.3-4.2-1.5-5.6-3.1
		c-3.3-3.9-4.6-7.7-4.2-12.8c0.4-5.3,4.8-9.6,10-10.1c2.9-0.3,5.1,0.7,7.8,1.3c3,0.6,2.7-3.1,0.3-2.7c-2.7,0.5-5.1-0.7-7.7-0.7
		c-4.2,0-7.8,3.3-12,2.8c-0.8-0.1-1.6-0.3-2.4-0.3c-1.3,0-3.3,0.4-3.1,2c0.1,0.9,0.5,1.5,2.2,1.5c0,0,0,0,0,0c0,0,0.2-0.1,0.2-0.1
		c0.2-0.1,0.5-0.2,0.8-0.2c0.4,0,0.7,0.1,1,0.4c1,1,1.7,2.6-0.3,4.7c-0.5,0.5-1.1,0.8-1.8,0.8c-0.9,0-1.7-0.4-2.3-0.7l-0.2-0.1
		c-0.5-0.2-1.4-0.4-2.5-0.4c-2.1,0-4.3,0.4-5.1,1c-1,0.8-1.8,1.8-2.6,3c-0.9,1.2-1.8,2.4-3.1,3.3c-0.2,0.2-0.5,0.3-0.7,0.3
		c-0.1,0-0.2,0.1-0.2,0.1l-0.8,0.3c-0.1,0-0.2,0-0.2-0.1c-0.1-1.9-0.4-3.8,0.3-5.6c0.9-2.8,3.2-4.3,5.5-5.9c2.5-1.7,4.7-3.8,6.3-6.4
		c0.2-0.3,0.4-0.7,0.7-0.9c0.7-0.5,1.6-0.4,2.4-0.4c1,0,2-0.1,2.9-0.4c3.6-1.2-1.4-3.2,0-5.5c2.3-3.9,5.1-7.4,10-7.4
		c0.5,0,1,0,1.6,0.1c0.4,0.1,0.7,0.2,1.1,0.3c0.1,0,0.3,0.1,0.4,0.1l1.6,0.5c0.1,0,0.1,0.2,0,0.3l-2,0.8c-0.3,0.1-0.7,0.3-1,0.4
		c-0.1,0.1-0.3,0.1-0.4,0.1c-0.5,0.2-0.6,0.2-0.6,0.4c-0.1,0.5,0.1,0.7,0.2,0.8c0.2,0.2,0.5,0.2,0.8,0.2c0.3,0,0.7-0.1,1-0.1
		c0.2,0,0.4-0.1,0.6-0.1c1-0.2,2-0.4,2.9-1c0.6-0.4,3.2-2.5,3.6-3.5c0.1-0.1-0.2-0.4-0.6-0.7c0,0,0,0,0,0c0,0-0.1,0-0.3,0
		c-0.1,0-0.1,0-0.1,0c0,0,0,0,0,0c-0.6,0.3-1.1,0.5-1.7,0.5c-0.8,0-1.5-0.3-2.1-0.5c-0.2-0.1-0.4-0.2-0.6-0.2l-1.3-0.5
		c-0.1,0-0.1-0.2,0-0.3c2.3-1.5,5.1-3.5,7.9-3.8c3.2-0.4,6.9,1.4,8.6,4.2c1.1,1.8,1.2,6.1-0.5,7.7c-1.8,1.6-4.7-0.6-6.4,1.6
		c0,0,0,0.1,0,0.1c0,0.1,0.3,0.3,0.8,0.6c4,1.7,6.5,4.5,7.5,8.5c0.6,2.4,0.7,4.9,0.1,7.2c-0.5,1.9-1.8,5.5-4.2,5.5
		c-0.6,0-1.3-0.2-1.8-0.4c-0.1,0-0.2-0.1-0.3-0.1c-1.3-0.5-2.6-0.7-3.9-0.7c-3,0-5.8,1.2-7.9,3.5c-1.2,1.3-0.4,2-0.1,2.3
		c0.3,0.3,0.6,0.4,0.9,0.4c0.6,0,1.3-0.4,1.7-0.8c0.4-0.3,0.8-0.6,1.1-0.9c1.1-1,2.3-2,4.1-2.2c0.3,0,0.7-0.1,1-0.1
		c2.2,0,3.7,1.1,4.7,3.6c1,2.4,1.9,5.4,1.4,8.7c-0.1,0.4-0.2,1-0.4,1.5c-0.5,1-0.2,1.8,0.5,3c0.4,0.8,0.9,1.6,0.9,2.6
		c0.1,4.5-1.7,8.5-5.1,10.9c-2.2,1.6-4.7,3.5-4.5,6.5c0,0.2,0.1,0.5,0.2,0.7c0.3,0.4,0.9,0.2,1.2-0.1c1.6-1.4,1.8-3.5,3.8-4.6
		c1.7-1,2.7,0.1,2.9,0.6c0.9,1.8,2.2,3.5,2.4,5.6c0.2,1.8-0.4,3.4-0.9,4.9c-0.2,0.6-0.4,1.2-0.5,1.7c-1.1,4.1,1,7.4,1.5,11.3
		c0.2,1.7,0,3.4-0.8,4.8c-1,1.6-2.6,2.5-4.3,3.2c-0.9,0.3-4,0.7-3.6,2.2c0.5,1.6,2.5,1,3.6,0.5c0.7-0.3,1.4-0.7,2.2-0.8
		c0.8-0.1,1.7,0.1,2.1,0.8c0.3,0.5,0.3,1.1,0.3,1.7c-0.3,4.5-3,8-7.3,9.3C244.9,279.6,244.1,279.7,243.3,279.7z M235.2,241.7
		c-1,0-1.3,0.4-1.4,0.9c-0.3,0.8-0.1,1,0.3,1.1c1.5,0.7,2.6,1.7,3.5,3.1c0.3,0.4,0.5,0.9,0.7,1.3c0.8,1.5,1.5,2.9,3.2,3.2
		c0.8,0.2,1.3,0.2,1.8,0.2c1.1,0,1.8-0.3,2.4-1.1c1.2-1.5,1.5-3.5,1.8-5.4l0-0.1c0-0.1,0-0.2,0-0.3c0-0.1,0-0.2,0-0.3
		c0,0-0.1-0.1-0.1-0.1c-0.1,0-0.2,0-0.2,0c-0.1,0-0.2,0-0.4,0.2c-0.3,0.3-0.6,0.8-0.8,1.3c-0.5,0.9-1,1.8-2.1,2.2
		c-0.4,0.1-0.7,0.2-1.1,0.2c0,0,0,0,0,0c-1.6,0-2.5-1.3-3.3-2.3c-0.2-0.3-0.5-0.7-0.7-0.9c-0.4-0.4-0.6-0.9-0.9-1.3
		c-0.7-1.2-1.2-1.9-2.4-1.9C235.4,241.7,235.3,241.7,235.2,241.7z M209,215.5c-0.1,0-0.4,0-0.7,0.5c-0.9,1.5-0.2,2.8,0.9,4.6l0,0
		c0.2,0.3,0.4,0.6,0.7,0.9c0.6,0.8,1.2,1.6,1.4,2.6c0.4,1.7,0.3,3.5,0.2,5c-0.1,1.1-0.1,2.2,0,3l0,0.1v0.1c0,3,0.7,4,2.1,5
		c0.3,0.2,0.6,0.3,1,0.3c0.3,0,0.6-0.1,0.8-0.3c0.3-0.2,0-1-0.1-1.5c-0.2-0.5-0.3-0.9-0.5-1.4c-0.2-0.5-0.4-1-0.5-1.6
		c-0.7-2.1-0.4-4.1,0-6c0.1-0.3,0.1-0.7,0.2-1c0.1-0.4,0.1-0.8,0-1.3c0-0.7,0-1.6,0.3-2.4c0.2-0.4,0.8-1.8,2-1.8
		c0.7,0,1.3,0.4,1.8,0.7c0.3,0.2,0.7,0.4,0.9,0.5l0,0c0.4,0.1,0.7,0.1,1.1,0.1c0.4,0,0.7-0.1,0.9-0.4c0.6-0.8,0.6-1.2,0.3-1.6
		c-1.9-2.8-2.8-5.9-2.8-9.8c0-2-0.9-2-1.2-2l0,0c-0.4,0-0.7,0.1-0.9,0.3c-0.3,0.3-0.4,0.8-0.4,1.3c0,0.4,0.1,0.8,0.2,1.3
		c0.3,1.1-0.4,4.1-0.6,4.4c-0.3,0.9-0.8,2.1-2.2,2.4c-0.2,0.1-0.4,0.1-0.6,0.1c-1.1,0-1.8-0.7-2.4-1.3c-0.1-0.1-0.3-0.3-0.4-0.4
		C209.7,215.7,209.2,215.5,209,215.5z"/>
</g>
<g>
	<g>
		<polygon fill="#6F7073" points="408.5,391 405.3,391 405.3,390 412.7,390 412.7,391 409.6,391 409.6,399.4 408.5,399.4 		"/>
		<polygon fill="#6F7073" points="413.5,390 414.6,390 418,395.2 421.4,390 422.5,390 422.5,399.4 421.4,399.4 421.4,391.8 
			418,396.8 417.9,396.8 414.5,391.8 414.5,399.4 413.5,399.4 		"/>
		<polygon fill="#6F7073" points="96.8,389.3 89.5,389.3 89.5,384.4 109.4,384.4 109.4,389.3 102.1,389.3 102.1,408.4 96.8,408.4 		
			"/>
		<path fill="#6F7073" d="M107.8,390h5.2v3.7c1.1-2.5,2.8-4.2,5.9-4v5.4h-0.3c-3.5,0-5.6,2.1-5.6,6.5v6.8h-5.2V390z"/>
		<path fill="#6F7073" d="M118.2,403.1L118.2,403.1c0-4.1,3-5.9,7.4-5.9c1.8,0,3.2,0.3,4.5,0.8v-0.3c0-2.2-1.3-3.4-3.9-3.4
			c-2,0-3.4,0.4-5.1,1l-1.3-4c2-0.9,4-1.5,7.1-1.5c2.8,0,4.9,0.8,6.2,2.1c1.4,1.4,2,3.4,2,5.9v10.6h-5v-2c-1.3,1.4-3,2.3-5.5,2.3
			C121,408.7,118.2,406.7,118.2,403.1 M130.1,401.9V401c-0.9-0.4-2.1-0.7-3.3-0.7c-2.2,0-3.6,0.9-3.6,2.5v0.1c0,1.4,1.2,2.2,2.8,2.2
			C128.5,405.1,130.1,403.8,130.1,401.9"/>
		<path fill="#6F7073" d="M137.4,383.4h5.5v4.6h-5.5V383.4z M137.6,390h5.2v18.3h-5.2V390z"/>
		<path fill="#6F7073" d="M145.5,390h5.2v2.6c1.2-1.5,2.7-2.9,5.4-2.9c3.9,0,6.2,2.6,6.2,6.8v11.9h-5.2v-10.2c0-2.5-1.2-3.7-3.1-3.7
			c-2,0-3.3,1.3-3.3,3.7v10.2h-5.2V390z"/>
		<path fill="#6F7073" d="M173.6,383.4h5.2v9.2c1.2-1.5,2.7-2.9,5.4-2.9c3.9,0,6.2,2.6,6.2,6.8v11.9h-5.2v-10.2
			c0-2.5-1.2-3.7-3.1-3.7c-2,0-3.3,1.3-3.3,3.7v10.2h-5.2V383.4z"/>
		<path fill="#6F7073" d="M191.7,403.1L191.7,403.1c0-4.1,3-5.9,7.4-5.9c1.8,0,3.2,0.3,4.5,0.8v-0.3c0-2.2-1.3-3.4-3.9-3.4
			c-2,0-3.4,0.4-5.1,1l-1.3-4c2-0.9,4-1.5,7.1-1.5c2.8,0,4.9,0.8,6.2,2.1c1.4,1.4,2,3.4,2,5.9v10.6h-5v-2c-1.3,1.4-3,2.3-5.5,2.3
			C194.6,408.7,191.7,406.7,191.7,403.1 M203.7,401.9V401c-0.9-0.4-2.1-0.7-3.3-0.7c-2.2,0-3.6,0.9-3.6,2.5v0.1
			c0,1.4,1.2,2.2,2.8,2.2C202,405.1,203.7,403.8,203.7,401.9"/>
		<path fill="#6F7073" d="M211.1,390h5.2v3.7c1.1-2.5,2.8-4.2,5.9-4v5.4h-0.3c-3.5,0-5.6,2.1-5.6,6.5v6.8h-5.2V390z"/>
		<path fill="#6F7073" d="M222.2,399.2L222.2,399.2c0-6.2,4-9.5,8.3-9.5c2.8,0,4.5,1.3,5.7,2.7v-9h5.2v25h-5.2v-2.6
			c-1.3,1.7-3,3-5.7,3C226.2,408.7,222.2,405.3,222.2,399.2 M236.3,399.2L236.3,399.2c0-3.1-2-5.1-4.4-5.1c-2.4,0-4.5,2-4.5,5.1v0.1
			c0,3,2.1,5.1,4.5,5.1C234.3,404.3,236.3,402.3,236.3,399.2"/>
		<rect x="244.1" y="402.9" fill="#6F7073" width="5.5" height="5.5"/>
		<polygon fill="#6F7073" points="267.1,389.3 259.8,389.3 259.8,384.4 279.6,384.4 279.6,389.3 272.3,389.3 272.3,408.4 
			267.1,408.4 		"/>
		<path fill="#6F7073" d="M276.8,399.3L276.8,399.3c0-5.3,3.7-9.6,9.1-9.6c6.1,0,8.9,4.8,8.9,10c0,0.4,0,0.9-0.1,1.4h-12.8
			c0.5,2.4,2.2,3.6,4.5,3.6c1.7,0,3-0.5,4.4-1.9l3,2.6c-1.7,2.1-4.2,3.4-7.5,3.4C280.8,408.8,276.8,404.9,276.8,399.3 M289.7,397.7
			c-0.3-2.3-1.7-3.9-3.9-3.9c-2.2,0-3.6,1.5-4,3.9H289.7z"/>
		<path fill="#6F7073" d="M294.8,405.9l2.2-3.4c2,1.4,4.1,2.2,5.8,2.2c1.5,0,2.2-0.5,2.2-1.4v-0.1c0-1.1-1.8-1.5-3.8-2.1
			c-2.6-0.8-5.5-2-5.5-5.5v-0.1c0-3.7,3-5.8,6.7-5.8c2.3,0,4.9,0.8,6.8,2.1l-2,3.6c-1.8-1.1-3.6-1.7-5-1.7c-1.3,0-1.9,0.5-1.9,1.3
			v0.1c0,1,1.7,1.5,3.7,2.2c2.6,0.9,5.5,2.1,5.5,5.4v0.1c0,4.1-3,5.9-7,5.9C300.1,408.7,297.2,407.8,294.8,405.9"/>
		<path fill="#6F7073" d="M312,403.2v-8.7h-2.2V390h2.2v-4.7h5.2v4.7h4.3v4.4h-4.3v7.8c0,1.2,0.5,1.8,1.7,1.8c1,0,1.8-0.2,2.6-0.7
			v4.2c-1.1,0.6-2.4,1.1-4.1,1.1C314.1,408.7,312,407.4,312,403.2"/>
		<path fill="#6F7073" d="M331.3,399.3L331.3,399.3c0-5.3,3.7-9.6,9.1-9.6c6.1,0,8.9,4.8,8.9,10c0,0.4,0,0.9-0.1,1.4h-12.8
			c0.5,2.4,2.2,3.6,4.5,3.6c1.7,0,3-0.5,4.4-1.9l3,2.6c-1.7,2.1-4.2,3.4-7.5,3.4C335.3,408.8,331.3,404.9,331.3,399.3 M344.2,397.7
			c-0.3-2.3-1.7-3.9-3.9-3.9c-2.2,0-3.6,1.5-4,3.9H344.2z"/>
		<path fill="#6F7073" d="M349.7,403.1L349.7,403.1c0-4.1,3-5.9,7.4-5.9c1.8,0,3.2,0.3,4.5,0.8v-0.3c0-2.2-1.3-3.4-3.9-3.4
			c-2,0-3.4,0.4-5.1,1l-1.3-4c2-0.9,4-1.5,7.1-1.5c2.8,0,4.9,0.8,6.2,2.1c1.4,1.4,2,3.4,2,5.9v10.6h-5v-2c-1.3,1.4-3,2.3-5.5,2.3
			C352.5,408.7,349.7,406.7,349.7,403.1 M361.6,401.9V401c-0.9-0.4-2.1-0.7-3.3-0.7c-2.2,0-3.6,0.9-3.6,2.5v0.1
			c0,1.4,1.2,2.2,2.8,2.2C360,405.1,361.6,403.8,361.6,401.9"/>
		<path fill="#6F7073" d="M367.4,405.9l2.2-3.4c2,1.4,4.1,2.2,5.8,2.2c1.5,0,2.2-0.5,2.2-1.4v-0.1c0-1.1-1.8-1.5-3.8-2.1
			c-2.6-0.8-5.5-2-5.5-5.5v-0.1c0-3.7,3-5.8,6.7-5.8c2.3,0,4.9,0.8,6.8,2.1l-2,3.6c-1.8-1.1-3.6-1.7-5-1.7c-1.3,0-1.9,0.5-1.9,1.3
			v0.1c0,1,1.7,1.5,3.7,2.2c2.6,0.9,5.5,2.1,5.5,5.4v0.1c0,4.1-3,5.9-7,5.9C372.7,408.7,369.9,407.8,367.4,405.9"/>
		<path fill="#6F7073" d="M383.4,412.7l1.7-3.8c0.7,0.4,1.5,0.7,2.2,0.7c0.9,0,1.4-0.3,1.8-1.2L382,390h5.5l4.2,12.5l4-12.5h5.4
			l-7,18.8c-1.4,3.7-2.9,5.1-6,5.1C386.1,413.9,384.7,413.5,383.4,412.7"/>
		<rect x="399.9" y="402.9" fill="#6F7073" width="5.5" height="5.5"/>
	</g>
	<g>
		<polygon fill="#3E3E3F" points="245.2,343.9 227.3,315.6 239.2,315.6 250.4,334.4 261.7,315.6 273.3,315.6 255.4,343.7 
			255.4,362.2 245.2,362.2 		"/>
		<polygon fill="#3E3E3F" points="189.7,315.6 224.9,315.6 224.9,324.8 199.9,324.8 199.9,334.2 221.9,334.2 221.9,343.3 
			199.9,343.3 199.9,353.1 225.2,353.1 225.2,362.2 189.7,362.2 		"/>
		<polygon fill="#3E3E3F" points="152.6,315.6 162.8,315.6 162.8,352.9 186.1,352.9 186.1,362.2 152.6,362.2 		"/>
		<path fill="#3E3E3F" d="M100.4,339.1v-0.1c0-12.8,10.1-23.3,24-23.3c13.9,0,23.9,10.4,23.9,23.2v0.1c0,12.8-10.1,23.3-24,23.3
			C110.4,362.2,100.4,351.9,100.4,339.1 M137.9,339.1v-0.1c0-7.7-5.7-14.2-13.6-14.2c-8,0-13.5,6.3-13.5,14v0.1
			c0,7.7,5.7,14.2,13.6,14.2C132.4,353.1,137.9,346.8,137.9,339.1"/>
		<polygon fill="#3E3E3F" points="64,315.6 99.5,315.6 99.5,325 74.2,325 74.2,334.9 96.5,334.9 96.5,344.2 74.2,344.2 74.2,362.2 
			64,362.2 		"/>
	</g>
	<g>
		<path fill="#AAACAF" d="M411.1,315.6h19c11.1,0,17.8,6.6,17.8,16.1v0.1c0,10.8-8.4,16.4-18.8,16.4h-7.8v14h-10.2V315.6z
			 M429.5,339.1c5.1,0,8.1-3.1,8.1-7V332c0-4.6-3.2-7.1-8.3-7.1h-7.9v14.2H429.5z"/>
		<polygon fill="#AAACAF" points="370.1,315.6 405.2,315.6 405.2,324.8 380.3,324.8 380.3,334.2 402.2,334.2 402.2,343.3 
			380.3,343.3 380.3,353.1 405.5,353.1 405.5,362.2 370.1,362.2 		"/>
		<path fill="#AAACAF" d="M324.4,315.6h21.3c5.9,0,10.5,1.7,13.6,4.7c2.6,2.6,4,6.3,4,10.7v0.1c0,7.5-4.1,12.2-10,14.4l11.4,16.6
			h-12l-10-14.9h-8.1v14.9h-10.2V315.6z M345,338.3c5,0,7.8-2.7,7.8-6.6v-0.1c0-4.4-3.1-6.7-8-6.7h-10.2v13.4H345z"/>
		<path fill="#AAACAF" d="M282.7,315.6h19c11.1,0,17.8,6.6,17.8,16.1v0.1c0,10.8-8.4,16.4-18.8,16.4h-7.8v14h-10.2V315.6z
			 M301,339.1c5.1,0,8.1-3.1,8.1-7V332c0-4.6-3.2-7.1-8.3-7.1h-7.9v14.2H301z"/>
	</g>
</g>
</svg>
